<?xml version="1.0" encoding="UTF-8"?>
<svg id="Livello_1" data-name="Livello 1" xmlns="http://www.w3.org/2000/svg" viewBox="0 0 1080 1080">
  <defs>
    <style>
      .cls-1 {
        fill: #1d1d1b;
      }
    </style>
  </defs>
  <g>
    <path class="cls-1" d="M149.81,781.79c0-1.98,1.6-3.58,3.58-3.58h66.26c21.13,0,38.69,3.46,52.68,10.37,13.98,6.91,24.47,17.08,31.47,30.51,6.99,13.43,10.49,29.84,10.49,49.22,0,20.5-3.46,37.94-10.37,52.32-6.91,14.38-17.44,25.35-31.58,32.9-14.15,7.55-31.71,11.32-52.68,11.32h-66.26c-1.98,0-3.58-1.6-3.58-3.58v-179.49ZM176.42,938.78c-2.26-2.26-.66-6.11,2.53-6.11h40.7c12.71,0,23.32-2.46,31.82-7.39,8.5-4.92,14.9-12.16,19.19-21.69,4.29-9.53,6.44-21.29,6.44-35.28,0-12.55-2.11-23.16-6.32-31.82-4.21-8.66-10.61-15.18-19.19-19.55-8.58-4.37-19.23-6.56-31.94-6.56h-40.7c-3.19,0-4.79-3.86-2.53-6.11l2.32-2.32c2.26-2.26,6.11-.66,6.11,2.53v134.08c0,3.19-3.86,4.79-6.11,2.53l-2.32-2.32Z"/>
    <path class="cls-1" d="M336.94,780.35h29.79c1.98,0,3.58,1.6,3.58,3.58v26.21c0,1.98-1.6,3.58-3.58,3.58h-29.79c-1.98,0-3.58-1.6-3.58-3.58v-26.21c0-1.98,1.6-3.58,3.58-3.58ZM338.37,831.84h26.69c1.98,0,3.58,1.6,3.58,3.58v125.85c0,1.98-1.6,3.58-3.58,3.58h-26.69c-1.98,0-3.58-1.6-3.58-3.58v-125.85c0-1.98,1.6-3.58,3.58-3.58Z"/>
    <path class="cls-1" d="M414.28,963.66c-8.66-3.49-15.22-8.58-19.67-15.26-3.81-5.72-6.23-12.54-7.24-20.47-.27-2.15,1.39-4.08,3.56-4.08h28.09c1.67,0,3.11,1.16,3.47,2.79,1.1,4.99,3.41,8.87,6.91,11.63,4.13,3.26,10.25,4.89,18.36,4.89s13.55-1.39,17.28-4.17c3.73-2.78,5.6-6.63,5.6-11.56,0-3.81-1.27-6.79-3.81-8.94-2.55-2.15-6.83-3.77-12.87-4.89l-24.08-4.29c-13.82-2.54-24.16-7.15-30.99-13.83-6.83-6.67-10.25-15.41-10.25-26.22,0-8.9,2.22-16.41,6.67-22.53,4.45-6.12,10.93-10.81,19.43-14.06,8.5-3.26,18.79-4.89,30.87-4.89,18.27,0,32.3,3.78,42.07,11.32,8.83,6.82,13.99,16.39,15.5,28.73.26,2.14-1.41,4.05-3.57,4.05h-27.4c-1.67,0-3.12-1.17-3.48-2.8-1.1-5.1-3.41-8.93-6.92-11.5-4.14-3.02-9.93-4.53-17.4-4.53-7,0-12.56,1.11-16.69,3.34-4.14,2.23-6.2,5.48-6.2,9.77,0,2.7.84,5.01,2.5,6.91,1.67,1.91,4.29,3.54,7.87,4.89,3.58,1.35,8.46,2.66,14.66,3.93l17.88,3.81c14.14,3.02,24.35,7.55,30.63,13.59,6.28,6.04,9.41,14.46,9.41,25.27,0,13.83-4.85,24.67-14.54,32.54-9.7,7.87-24.24,11.8-43.62,11.8-12.72,0-23.4-1.75-32.06-5.25Z"/>
    <path class="cls-1" d="M514.76,831.84h68.64c1.98,0,3.58,1.6,3.58,3.58v21.68c0,1.98-1.6,3.58-3.58,3.58h-68.64c-1.98,0-3.58-1.6-3.58-3.58v-21.68c0-1.98,1.6-3.58,3.58-3.58ZM534.54,957.46c-4.61-4.92-6.91-12.87-6.91-23.84v-128.48c0-1.98,1.6-3.58,3.58-3.58h26.92c1.98,0,3.58,1.6,3.58,3.58v119.66c0,3.18.55,5.36,1.67,6.56,1.11,1.19,3.1,1.79,5.96,1.79h14.54c1.98,0,3.58,1.6,3.58,3.58v24.54c0,1.98-1.6,3.58-3.58,3.58h-27.17c-10.17,0-17.56-2.46-22.17-7.39Z"/>
    <path class="cls-1" d="M651.11,834.94c5.88-3.18,13.19-4.77,21.93-4.77h4.05c1.98,0,3.58,1.6,3.58,3.58v24.31c0,1.98-1.6,3.58-3.58,3.58h-4.05c-12.4,0-21.1,3.58-26.1,10.73-5.01,7.15-7.51,17.01-7.51,29.56v59.35c0,1.98-1.6,3.58-3.58,3.58h-26.69c-1.98,0-3.58-1.6-3.58-3.58v-125.85c0-1.98,1.6-3.58,3.58-3.58h24.54c1.98,0,3.58,1.6,3.58,3.58v14.54h1.19c2.54-6.83,6.75-11.84,12.63-15.02Z"/>
    <path class="cls-1" d="M695.21,780.35h29.79c1.98,0,3.58,1.6,3.58,3.58v26.21c0,1.98-1.6,3.58-3.58,3.58h-29.79c-1.98,0-3.58-1.6-3.58-3.58v-26.21c0-1.98,1.6-3.58,3.58-3.58ZM696.64,831.84h26.69c1.98,0,3.58,1.6,3.58,3.58v125.85c0,1.98-1.6,3.58-3.58,3.58h-26.69c-1.98,0-3.58-1.6-3.58-3.58v-125.85c0-1.98,1.6-3.58,3.58-3.58Z"/>
    <path class="cls-1" d="M775.89,960.21c-10.41-5.8-18.4-13.98-23.96-24.55-5.57-10.57-8.34-23-8.34-37.31s2.82-26.82,8.46-37.54c5.64-10.73,13.62-18.95,23.96-24.67,10.33-5.72,22.56-8.58,36.71-8.58,18.27,0,33.05,4.65,44.34,13.94,10.29,8.48,16.55,19.84,18.78,34.07.34,2.19-1.33,4.19-3.54,4.19h-28.28c-1.52,0-2.9-.95-3.37-2.39-1.75-5.37-4.74-9.62-8.98-12.75-4.85-3.58-11.01-5.36-18.47-5.36s-13.31,1.55-18.47,4.65c-5.16,3.1-9.1,7.51-11.8,13.23-2.7,5.72-4.05,12.63-4.05,20.74,0,12.39,3.06,22.05,9.18,28.96,6.11,6.91,14.74,10.37,25.86,10.37,5.24,0,9.85-.87,13.83-2.62,3.97-1.75,7.19-4.33,9.65-7.75,1.99-2.76,3.38-6.02,4.18-9.76.34-1.62,1.82-2.75,3.47-2.75h28.15c2.23,0,3.9,2.03,3.53,4.23-2.49,14.86-8.97,26.76-19.43,35.7-11.44,9.77-26.3,14.66-44.58,14.66-14.15,0-26.42-2.9-36.83-8.7Z"/>
    <path class="cls-1" d="M887.58,831.84h68.64c1.98,0,3.58,1.6,3.58,3.58v21.68c0,1.98-1.6,3.58-3.58,3.58h-68.64c-1.98,0-3.58-1.6-3.58-3.58v-21.68c0-1.98,1.6-3.58,3.58-3.58ZM907.36,957.46c-4.61-4.92-6.91-12.87-6.91-23.84v-128.48c0-1.98,1.6-3.58,3.58-3.58h26.93c1.98,0,3.58,1.6,3.58,3.58v119.66c0,3.18.55,5.36,1.67,6.56,1.11,1.19,3.1,1.79,5.96,1.79h14.54c1.98,0,3.58,1.6,3.58,3.58v24.54c0,1.98-1.6,3.58-3.58,3.58h-27.17c-10.17,0-17.56-2.46-22.17-7.39Z"/>
  </g>
  <g>
    <path class="cls-1" d="M712.09,513.83v-74.39c0-6.35,5.15-11.5,11.5-11.5h107.45c6.35,0,11.5-5.15,11.5-11.5v-74.39c0-6.35,5.15-11.5,11.5-11.5h100.34c6.35,0,11.5-5.15,11.5-11.5v-99.79c0-6.35-5.15-11.5-11.5-11.5h-100.34c-6.35,0-11.5-5.15-11.5-11.5v-73.64c0-6.35-5.15-11.5-11.5-11.5h-247.51c-6.35,0-11.5,5.15-11.5,11.5v73.64c0,6.35-5.15,11.5-11.5,11.5h-100.35c-6.35,0-11.5,5.15-11.5,11.5v83.68c0,6.35,5.15,11.5,11.5,11.5h112.26c6.35,0,11.5-5.15,11.5-11.5v-78c0-6.35,5.15-11.5,11.5-11.5h223.68c6.35,0,11.5,5.15,11.5,11.5v88.42c0,6.35-5.15,11.5-11.5,11.5h-107.45c-6.35,0-11.5,5.15-11.5,11.5v74.39c0,6.35-5.15,11.5-11.5,11.5h-107.45c-6.35,0-11.5,5.15-11.5,11.5v68.71c0,6.35-5.15,11.5-11.5,11.5h-98.03c-6.35,0-11.5,5.15-11.5,11.5v168c0,6.35,5.15,11.5,11.5,11.5h370.86c6.35,0,11.5-5.15,11.5-11.5v-70.6c0-6.35,5.15-11.5,11.5-11.5h100.34c6.35,0,11.5-5.15,11.5-11.5v-74.39c0-6.35-5.15-11.5-11.5-11.5h-112.26c-6.35,0-11.5,5.15-11.5,11.5v65.67c0,6.35-5.15,11.5-11.5,11.5h-223.68c-6.35,0-11.5-5.15-11.5-11.5v-54.31c0-6.35,5.15-11.5,11.5-11.5h105.14c6.35,0,11.5-5.15,11.5-11.5Z"/>
    <path class="cls-1" d="M372.72,201.89v-79.27c0-6.37-5.16-11.53-11.53-11.53h-112.21c-6.37,0-11.53,5.16-11.53,11.53v73.59c0,6.37-5.16,11.53-11.53,11.53h-100.3c-6.37,0-11.53,5.16-11.53,11.53v80.03c0,6.37,5.16,11.53,11.53,11.53h100.3c6.37,0,11.53,5.16,11.53,11.53v371.1c0,6.37,5.16,11.53,11.53,11.53h112.21c6.37,0,11.53-5.16,11.53-11.53v-376.78c0-6.37-5.16-11.53-11.53-11.53h-100.3c-6.37,0-11.53-5.16-11.53-11.53v-68.66c0-6.37,5.16-11.53,11.53-11.53h100.3c6.37,0,11.53-5.16,11.53-11.53Z"/>
  </g>
</svg>